<?xml version="1.0" encoding="UTF-8" standalone="no"?>
<!-- Created with Inkscape (http://www.inkscape.org/) -->

<svg
   width="16"
   height="16"
   viewBox="0 0 16 16"
   version="1.1"
   id="svg1"
   xml:space="preserve"
   inkscape:version="1.4 (86a8ad7, 2024-10-11)"
   sodipodi:docname="mute.svg"
   xmlns:inkscape="http://www.inkscape.org/namespaces/inkscape"
   xmlns:sodipodi="http://sodipodi.sourceforge.net/DTD/sodipodi-0.dtd"
   xmlns="http://www.w3.org/2000/svg"
   xmlns:svg="http://www.w3.org/2000/svg"><sodipodi:namedview
     id="namedview1"
     pagecolor="#505050"
     bordercolor="#eeeeee"
     borderopacity="1"
     inkscape:showpageshadow="0"
     inkscape:pageopacity="0"
     inkscape:pagecheckerboard="0"
     inkscape:deskcolor="#d1d1d1"
     inkscape:document-units="px"
     inkscape:zoom="22.627417"
     inkscape:cx="11.976621"
     inkscape:cy="5.5684659"
     inkscape:window-width="1440"
     inkscape:window-height="878"
     inkscape:window-x="-6"
     inkscape:window-y="-6"
     inkscape:window-maximized="1"
     inkscape:current-layer="g2" /><defs
     id="defs1" /><g
     inkscape:label="Layer 1"
     inkscape:groupmode="layer"
     id="layer1"><g
       style="fill:#000000;stroke:none;stroke-opacity:1"
       id="g1"
       transform="matrix(0.7266548,0,0,0.7266548,-0.72665483,-0.7198576)"><g
         id="g2"><path
           fill-rule="evenodd"
           d="M 12,3.75 A 0.75,0.75 0 0 0 10.745,3.195 L 5.46,8 H 2.75 A 1.75,1.75 0 0 0 1,9.75 v 4.5 C 1,15.216 1.784,16 2.75,16 h 2.71 l 5.285,4.805 A 0.75,0.75 0 0 0 12,20.25 Z M 6.255,9.305 10.5,5.445 v 13.11 L 6.255,14.695 A 0.75,0.75 0 0 0 5.75,14.5 h -3 A 0.25,0.25 0 0 1 2.5,14.25 V 9.75 A 0.25,0.25 0 0 1 2.75,9.5 h 3 A 0.75,0.75 0 0 0 6.255,9.305 Z"
           id="path1"
           style="fill:#ffffff;fill-opacity:1;stroke:none;stroke-opacity:1" /><path
           d="m 16.28,8.22 a 0.75,0.75 0 1 0 -1.06,1.06 l 2.72,2.72 -2.72,2.72 a 0.75,0.75 0 1 0 1.06,1.06 l 2.72,-2.72 2.72,2.72 a 0.75,0.75 0 1 0 1.06,-1.06 L 20.06,12 22.78,9.28 A 0.75,0.75 0 0 0 21.72,8.22 L 19,10.94 Z"
           id="path2"
           style="fill:#ffffff;fill-opacity:1;stroke:none;stroke-opacity:1" /></g></g></g></svg>
