<?xml version="1.0" encoding="UTF-8" standalone="no"?>
<!-- Created with Inkscape (http://www.inkscape.org/) -->

<svg
   width="16"
   height="16"
   viewBox="0 0 16 16"
   version="1.1"
   id="svg1"
   xml:space="preserve"
   inkscape:version="1.4 (86a8ad7, 2024-10-11)"
   sodipodi:docname="unmute.svg"
   xmlns:inkscape="http://www.inkscape.org/namespaces/inkscape"
   xmlns:sodipodi="http://sodipodi.sourceforge.net/DTD/sodipodi-0.dtd"
   xmlns="http://www.w3.org/2000/svg"
   xmlns:svg="http://www.w3.org/2000/svg"><sodipodi:namedview
     id="namedview1"
     pagecolor="#505050"
     bordercolor="#eeeeee"
     borderopacity="1"
     inkscape:showpageshadow="0"
     inkscape:pageopacity="0"
     inkscape:pagecheckerboard="0"
     inkscape:deskcolor="#d1d1d1"
     inkscape:document-units="px"
     inkscape:zoom="28.019106"
     inkscape:cx="7.1736764"
     inkscape:cy="8.2443743"
     inkscape:window-width="1440"
     inkscape:window-height="878"
     inkscape:window-x="-6"
     inkscape:window-y="-6"
     inkscape:window-maximized="1"
     inkscape:current-layer="layer1" /><defs
     id="defs1" /><g
     inkscape:label="Layer 1"
     inkscape:groupmode="layer"
     id="layer1"><g
       style="fill:#ffffff;fill-opacity:1"
       id="g1"
       transform="matrix(0.72727273,0,0,0.72727273,-0.72727276,-0.7276555)"><path
         fill-rule="evenodd"
         d="M 11.553,3.064 A 0.75,0.75 0 0 1 12,3.75 v 16.5 a 0.75,0.75 0 0 1 -1.255,0.555 L 5.46,16 H 2.75 A 1.75,1.75 0 0 1 1,14.25 V 9.75 C 1,8.784 1.784,8 2.75,8 h 2.71 l 5.285,-4.805 a 0.75,0.75 0 0 1 0.808,-0.13 z M 10.5,5.445 6.255,9.305 A 0.75,0.75 0 0 1 5.75,9.5 h -3 A 0.25,0.25 0 0 0 2.5,9.75 v 4.5 c 0,0.138 0.112,0.25 0.25,0.25 h 3 a 0.75,0.75 0 0 1 0.505,0.195 l 4.245,3.86 z"
         id="path1"
         style="fill:#ffffff;fill-opacity:1" /><path
         d="m 18.718,4.222 a 0.75,0.75 0 0 1 1.06,0 c 4.296,4.296 4.296,11.26 0,15.556 a 0.75,0.75 0 0 1 -1.06,-1.06 9.5,9.5 0 0 0 0,-13.436 0.75,0.75 0 0 1 0,-1.06 z"
         id="path2"
         style="fill:#ffffff;fill-opacity:1" /><path
         d="m 16.243,7.757 a 0.75024029,0.75024029 0 1 0 -1.061,1.061 4.5,4.5 0 0 1 0,6.364 0.75,0.75 0 0 0 1.06,1.06 6,6 0 0 0 0,-8.485 z"
         id="path3"
         style="fill:#ffffff;fill-opacity:1" /></g></g></svg>
